<?xml version="1.0" encoding="utf-8"?>
<!-- Generator: Adobe Illustrator 19.0.0, SVG Export Plug-In . SVG Version: 6.00 Build 0)  -->
<svg version="1.1" xmlns="http://www.w3.org/2000/svg" xmlns:xlink="http://www.w3.org/1999/xlink" x="0px" y="0px"
	 viewBox="6 17 111 68" style="enable-background:new 6 17 111 68;" xml:space="preserve">
<style type="text/css">
	.st0{fill:#FFFFFF;}
</style>
<g id="background">
</g>
<g id="O">
</g>
<g id="line">
</g>
<g id="L">
</g>
<g id="P">
	<path class="st0" d="M115.5,18c-0.2-0.3-0.5-0.6-0.9-0.6H8.4c-0.6,0-1,0.4-1,1v65c0,0.6,0.4,1,1,1h66.1c0.6,0,1-0.4,1-1V68.8
		l19.2-23.1l20.7-26.6C115.6,18.8,115.6,18.4,115.5,18z M54.6,80.6H11.3V25.2L54.6,80.6z M56.7,21.4v55.5L13.4,21.4H56.7z
		 M75.5,62.7V21.4h33.1l-17,21.9L75.5,62.7z M71.6,71.2v9.4H60.7V21.4h10.8v49.5C71.5,71,71.5,71.1,71.6,71.2z"/>
</g>
</svg>
